<?xml version="1.0" standalone="no"?>
<!DOCTYPE svg PUBLIC "-//W3C//DTD SVG 20010904//EN"
 "http://www.w3.org/TR/2001/REC-SVG-20010904/DTD/svg10.dtd">
<svg version="1.0" xmlns="http://www.w3.org/2000/svg"
 width="700.000000pt" height="700.000000pt" viewBox="0 0 700.000000 700.000000"
 preserveAspectRatio="xMidYMid meet">
<metadata>
Created by potrace 1.11, written by Peter Selinger 2001-2013
</metadata>
<g transform="translate(0.000000,700.000000) scale(0.100000,-0.100000)"
fill="#000000" stroke="none">
<path d="M4580 6985 c-385 -83 -651 -353 -724 -731 -17 -91 -15 -697 3 -794
37 -203 78 -335 148 -479 43 -88 143 -252 169 -276 5 -5 22 -26 36 -45 28 -38
125 -137 418 -425 215 -212 239 -246 235 -339 -6 -166 -173 -274 -330 -214
-82 32 -129 82 -201 216 -38 70 -154 224 -229 304 -144 151 -319 280 -504 369
-96 47 -125 55 -187 50 -22 -1 -64 -35 -80 -64 -9 -16 -17 -16 -115 7 -57 14
-131 28 -164 32 -33 3 -63 8 -66 10 -4 2 -9 20 -12 40 -8 49 -75 104 -122 99
-80 -8 -125 -44 -139 -111 -7 -30 -10 -32 -64 -38 -77 -9 -104 -14 -195 -37
l-77 -19 -30 34 c-59 67 -110 67 -248 1 -108 -53 -234 -132 -332 -208 -58 -46
-209 -192 -250 -243 -19 -22 -216 -249 -305 -349 -34 -38 -82 -93 -106 -121
-75 -86 -164 -187 -174 -198 -5 -6 -41 -47 -80 -91 -38 -44 -72 -82 -75 -85
-3 -3 -32 -36 -65 -75 -33 -38 -62 -72 -65 -75 -37 -35 -119 -142 -127 -165
-19 -56 7 -123 60 -155 31 -19 60 -20 1276 -20 990 0 1242 -3 1238 -12 -3 -7
-32 -76 -65 -153 -192 -452 -244 -577 -249 -608 -7 -45 20 -101 61 -126 36
-22 839 -361 855 -361 14 0 13 53 15 -560 2 -596 -3 -554 73 -636 21 -22 94
-102 161 -176 68 -75 131 -140 140 -143 125 -52 247 76 179 188 -21 34 -111
136 -224 257 l-53 55 0 80 c-2 235 0 798 3 801 3 3 191 -74 337 -138 25 -11
25 -11 24 -147 -1 -146 4 -172 39 -212 62 -72 185 -49 220 40 13 30 16 80 15
232 -1 201 -5 227 -47 268 -19 20 -36 27 -416 186 -88 37 -164 70 -168 74 -6
6 -11 621 -8 1019 l1 72 363 0 c277 0 384 4 456 15 485 79 867 477 925 965 8
66 9 218 1 263 -3 17 -7 43 -9 57 -13 83 -49 197 -89 283 -72 155 -115 207
-432 522 -166 165 -318 322 -339 349 -91 119 -148 289 -147 438 0 73 40 133
105 158 20 7 190 11 538 11 440 0 515 -3 556 -16 72 -25 105 -49 179 -132 142
-159 175 -192 206 -202 62 -20 135 8 164 62 14 28 17 70 17 325 1 179 -3 319
-10 360 -28 165 -128 298 -281 376 -89 45 -129 49 -450 51 l-301 1 -70 66
c-77 72 -129 110 -213 156 -52 28 -180 74 -246 87 -56 12 -279 12 -333 0z
m-865 -4680 c0 -267 -3 -485 -6 -485 -6 0 -602 250 -607 255 -3 3 51 140 83
210 7 17 49 116 93 220 44 105 90 211 101 238 l20 47 158 0 158 0 0 -485z"/>
</g>
</svg>
